<svg width="100%" height="100%" id="svg" viewBox="0 0 1440 600" xmlns="http://www.w3.org/2000/svg" class="transition duration-300 ease-in-out delay-150"><path d="M 0,600 C 0,600 0,200 0,200 C 90.78461538461539,176.9974358974359 181.56923076923078,153.9948717948718 255,179 C 328.4307692307692,204.0051282051282 384.5076923076923,277.01794871794874 469,273 C 553.4923076923077,268.98205128205126 666.4000000000002,187.9333333333333 748,175 C 829.5999999999998,162.0666666666667 879.8923076923077,217.24871794871797 959,211 C 1038.1076923076923,204.75128205128203 1146.0307692307692,137.07179487179485 1231,125 C 1315.9692307692308,112.92820512820514 1377.9846153846154,156.46410256410257 1440,200 C 1440,200 1440,600 1440,600 Z" stroke="none" stroke-width="0" fill="#0693e388" class="transition-all duration-300 ease-in-out delay-150 path-0" transform="rotate(-180 720 300)"></path><path d="M 0,600 C 0,600 0,400 0,400 C 64.1076923076923,447.7692307692307 128.2153846153846,495.5384615384615 198,470 C 267.7846153846154,444.4615384615385 343.2461538461538,345.61538461538464 436,329 C 528.7538461538462,312.38461538461536 638.8000000000001,378 727,398 C 815.1999999999999,418 881.553846153846,392.38461538461536 948,386 C 1014.446153846154,379.61538461538464 1080.9846153846154,392.46153846153845 1163,398 C 1245.0153846153846,403.53846153846155 1342.5076923076922,401.7692307692308 1440,400 C 1440,400 1440,600 1440,600 Z" stroke="none" stroke-width="0" fill="#0693e3ff" class="transition-all duration-300 ease-in-out delay-150 path-1" transform="rotate(-180 720 300)"></path></svg>